<?xml version="1.0" encoding="utf-8"?>
<!-- Generator: Adobe Illustrator 24.3.0, SVG Export Plug-In . SVG Version: 6.00 Build 0)  -->
<svg version="1.1" id="Layer_1" xmlns="http://www.w3.org/2000/svg" xmlns:xlink="http://www.w3.org/1999/xlink" x="0px" y="0px"
	 viewBox="0 0 2200 800" style="enable-background:new 0 0 2200 800;" xml:space="preserve">
<style type="text/css">
	.st0{fill:#FFFFFF;}
</style>
<g id="svg8" inkscape:version="1.0 (4035a4fb49, 2020-05-01)" sodipodi:docname="font200x200.svg" xmlns:cc="http://creativecommons.org/ns#" xmlns:dc="http://purl.org/dc/elements/1.1/" xmlns:inkscape="http://www.inkscape.org/namespaces/inkscape" xmlns:rdf="http://www.w3.org/1999/02/22-rdf-syntax-ns#" xmlns:sodipodi="http://sodipodi.sourceforge.net/DTD/sodipodi-0.dtd" xmlns:svg="http://www.w3.org/2000/svg">
	
		<sodipodi:namedview  bordercolor="#666666" borderopacity="1.0" guidetolerance="10000" id="base" inkscape:current-layer="layer1" inkscape:cx="932.08723" inkscape:cy="576.53219" inkscape:document-rotation="0" inkscape:document-units="px" inkscape:pagecheckerboard="false" inkscape:pageopacity="0" inkscape:pageshadow="2" inkscape:window-height="1017" inkscape:window-maximized="1" inkscape:window-width="1920" inkscape:window-x="-8" inkscape:window-y="-8" inkscape:zoom="0.49497475" objecttolerance="10000" pagecolor="#000000" showgrid="true" units="px">
		<inkscape:grid  id="grid96" spacingx="52.916669" spacingy="52.916669" type="xygrid"></inkscape:grid>
	</sodipodi:namedview>
	<g>
		<path class="st0" d="M109,200c-13.3,0-24.8-1.9-34.3-5.7c-9.5-3.8-17.4-9.1-23.6-15.8c-6.2-6.8-10.8-14.6-13.9-23.6
			c-3.1-9-4.9-18.6-5.4-28.7c-0.2-5-0.3-10.6-0.4-16.8c-0.1-6.2-0.1-12.5,0-18.8c0.1-6.3,0.2-12,0.4-17.2
			c0.4-10.2,2.2-19.7,5.4-28.6c3.2-8.9,8-16.7,14.3-23.3c6.3-6.7,14.2-11.9,23.7-15.7C84.8,1.9,96,0,109,0c13,0,24.2,1.9,33.6,5.7
			c9.4,3.8,17.3,9,23.6,15.7c6.3,6.7,11.1,14.4,14.3,23.3c3.2,8.9,5.1,18.4,5.7,28.6c0.2,5.2,0.3,10.9,0.4,17.2
			c0.1,6.3,0.1,12.5,0,18.8c-0.1,6.2-0.2,11.8-0.4,16.8c-0.6,10.2-2.4,19.8-5.6,28.7c-3.2,9-7.8,16.9-14,23.6
			c-6.2,6.8-14.1,12-23.6,15.8C133.5,198.1,122.1,200,109,200z M109,163.9c10.7,0,18.6-3.5,23.6-10.6c5-7,7.6-16.6,7.8-28.6
			c0.4-5.4,0.6-10.9,0.6-16.7c0-5.7,0-11.5,0-17.2c0-5.7-0.2-11.1-0.6-16.1c-0.2-11.5-2.8-20.8-7.8-28.1c-5-7.2-12.9-10.8-23.6-10.8
			c-10.7,0-18.6,3.6-23.6,10.8s-7.7,16.6-8.1,28.1c0,5,0,10.4-0.1,16.1c-0.1,5.7-0.1,11.5,0,17.2c0.1,5.7,0.1,11.3,0.1,16.7
			c0.4,12,3.1,21.6,8.2,28.6C90.6,160.4,98.4,163.9,109,163.9z"/>
	</g>
	<path class="st0" d="M379.9,162c-1.3-1.3-3-2-5.1-2h-51.5V7.1c0-2.1-0.7-3.8-2-5.1c-1.3-1.3-3-2-5.1-2h-30.3
		c-1.3,0-2.5,0.1-3.6,0.4c-1,0.3-2.1,0.8-3.3,1.6l-65.1,50.3c-1.7,1.1-2.7,2.7-3,4.6c-0.3,1.9,0.1,3.7,1.3,5.4l14.3,18.9
		c1.3,1.7,2.9,2.7,4.7,3c1.8,0.3,3.6-0.1,5.3-1.3l41.1-32V160H225c-1.9,0-3.5,0.7-4.9,2c-1.3,1.3-2,3-2,5.1v25.7
		c0,2.1,0.7,3.8,2,5.1c1.3,1.3,3,2,4.9,2h59.7h31.4h58.6c2.1,0,3.8-0.7,5.1-2c1.3-1.3,2-3,2-5.1v-25.7
		C381.9,165,381.2,163.3,379.9,162z"/>
	<g>
		<path class="st0" d="M46.1,800c-3,0-5.5-0.9-7.3-2.6c-1.8-1.7-3-3.8-3.6-6.3L3,608c-0.2-0.4-0.3-0.8-0.3-1.1c0-0.4,0-0.7,0-0.9
			c0-1.5,0.6-2.9,1.7-4.1c1.1-1.2,2.6-1.9,4.3-1.9H39c5,0,7.7,2,8.3,6l17.1,105.6l17.1-53.9c0.6-1.5,1.5-3.1,2.9-4.9
			c1.3-1.7,3.5-2.6,6.6-2.6h18c3,0,5.2,0.9,6.6,2.6c1.3,1.7,2.3,3.3,2.9,4.9l17.1,53.6L152.7,606c0.6-4,3.3-6,8.3-6h30.3
			c1.7,0,3.1,0.6,4.3,1.9c1.1,1.2,1.7,2.6,1.7,4.1c0,0.2,0,0.5,0,0.9c0,0.4-0.1,0.8-0.3,1.1l-34.3,183.1c-0.4,2.5-1.5,4.6-3.3,6.3
			c-1.8,1.7-4.3,2.6-7.6,2.6h-27.1c-3,0-5.4-0.8-7-2.4c-1.6-1.6-2.7-3.3-3.3-5L100.1,724l-15.6,68.6c-0.6,1.7-1.7,3.4-3.3,5
			c-1.6,1.6-4,2.4-7,2.4H46.1z"/>
	</g>
	<g>
		<path class="st0" d="M213.6,800c-1.7,0-3.1-0.6-4.3-1.9c-1.1-1.2-1.7-2.6-1.7-4.1c0-0.6,0.1-1.1,0.3-1.7c0.2-0.6,0.4-1.1,0.6-1.7
			l63.1-92.6l-58.9-88.6c-0.6-1.1-0.9-2.3-0.9-3.4c0-1.5,0.6-2.9,1.7-4.1c1.1-1.2,2.6-1.9,4.3-1.9H253c2.7,0,4.7,0.7,6.1,2
			c1.4,1.3,2.5,2.6,3.3,3.7l38.3,56.9l38.3-56.9c0.8-1.1,1.9-2.4,3.4-3.7c1.5-1.3,3.5-2,6-2h33.4c1.7,0,3.1,0.6,4.3,1.9
			c1.1,1.2,1.7,2.6,1.7,4.1c0,1.3-0.3,2.5-0.9,3.4l-59.1,88.3l63.7,92.9c0.4,0.6,0.6,1.1,0.7,1.7c0.1,0.6,0.1,1.1,0.1,1.7
			c0,1.5-0.6,2.9-1.9,4.1c-1.2,1.2-2.6,1.9-4.1,1.9h-36.6c-2.5,0-4.5-0.7-6-2c-1.5-1.3-2.6-2.5-3.1-3.4L299,734.9l-41.1,59.7
			c-0.8,1-1.9,2.1-3.3,3.4c-1.4,1.3-3.4,2-5.9,2H213.6z"/>
	</g>
	<g>
		<path class="st0" d="M484.3,800c-2.1,0-3.8-0.7-5.1-2c-1.3-1.3-2-3-2-5.1V730l-66.9-120.9c-0.2-0.6-0.4-1.1-0.6-1.6
			c-0.2-0.5-0.3-1-0.3-1.6c0-1.5,0.6-2.9,1.9-4.1c1.2-1.2,2.6-1.9,4.1-1.9H446c2.5,0,4.5,0.7,6,2c1.5,1.3,2.6,2.6,3.1,3.7l44.9,78.6
			l44.9-78.6c0.6-1.1,1.6-2.4,3.1-3.7c1.5-1.3,3.6-2,6.3-2h30.3c1.7,0,3.1,0.6,4.3,1.9c1.1,1.2,1.7,2.6,1.7,4.1c0,0.6,0,1.1-0.1,1.6
			c-0.1,0.5-0.3,1-0.7,1.6L522.9,730v62.9c0,2.1-0.7,3.8-2,5.1c-1.3,1.3-3,2-5.1,2H484.3z"/>
	</g>
	<g>
		<path class="st0" d="M626.9,800c-2.1,0-3.8-0.7-5.1-2.1c-1.3-1.4-2-3.1-2-5v-24c0-2.7,0.6-4.9,1.7-6.6c1.1-1.7,2-3,2.6-3.7
			l96-120.3h-90.6c-1.9,0-3.5-0.7-4.9-2c-1.3-1.3-2-3-2-5.1v-24c0-2.1,0.7-3.8,2-5.1c1.3-1.3,3-2,4.9-2H770c2.1,0,3.8,0.7,5.1,2
			c1.3,1.3,2,3,2,5.1v23.7c0,2.1-0.4,4-1.1,5.6c-0.8,1.6-1.6,3-2.6,4.1L680,761.4h93.1c2.1,0,3.8,0.7,5.1,2c1.3,1.3,2,3,2,5.1v24.3
			c0,2.1-0.7,3.8-2,5.1c-1.3,1.3-3,2-5.1,2H626.9z"/>
	</g>
	<g>
		<path class="st0" d="M825.4,800c-1.9,0-3.5-0.7-4.9-2c-1.3-1.3-2-3-2-5.1V762c0-1.9,0.7-3.6,2-5c1.3-1.4,3-2.1,4.9-2.1h30.9
			c2.1,0,3.8,0.7,5.1,2.1c1.3,1.4,2,3.1,2,5v30.9c0,2.1-0.7,3.8-2,5.1c-1.3,1.3-3,2-5.1,2H825.4z M827.1,740.9
			c-2.1,0-3.8-0.7-5.1-2.1c-1.3-1.4-2-3.1-2-5V607.1c0-2.1,0.7-3.8,2-5.1c1.3-1.3,3-2,5.1-2h28c1.9,0,3.5,0.7,4.9,2
			c1.3,1.3,2,3,2,5.1v126.6c0,1.9-0.7,3.6-2,5c-1.3,1.4-3,2.1-4.9,2.1H827.1z"/>
	</g>
	<g>
		<path class="st0" d="M1037.8,800c-1.9,0-3.6-0.7-5-2.1c-1.4-1.4-2-3.1-1.8-5l4.9-33.1h-25.3c-2.2,0-4-0.7-5.4-2.1
			c-1.4-1.4-2.1-3.2-2.1-5.4v-22.1c0-2.2,0.7-3.9,2.1-5.4c1.4-1.4,3.2-2.1,5.4-2.1h30.8l6.8-45.5H1019c-2.2,0-4-0.7-5.4-2.1
			c-1.4-1.4-2.1-3.2-2.1-5.4v-22.1c0-2.2,0.7-3.9,2.1-5.4c1.4-1.4,3.2-2.1,5.4-2.1h34.7l5.2-33.4c0.4-1.7,1.2-3.3,2.4-4.7
			c1.2-1.4,2.9-2.1,5-2.1h22.4c1.9,0,3.6,0.7,4.9,2.1c1.3,1.4,1.9,3.1,1.9,5l-5.2,33.1h37l5.2-33.4c0.4-1.7,1.2-3.3,2.4-4.7
			c1.2-1.4,2.9-2.1,5-2.1h22.4c1.9,0,3.6,0.7,4.9,2.1c1.3,1.4,1.9,3.1,1.9,5l-5.2,33.1h25c2.4,0,4.3,0.7,5.7,2.1
			c1.4,1.4,2.1,3.2,2.1,5.4v22.1c0,2.2-0.7,4-2.1,5.4c-1.4,1.4-3.3,2.1-5.7,2.1h-30.5l-6.5,45.5h28.6c2.4,0,4.3,0.7,5.7,2.1
			c1.4,1.4,2.1,3.2,2.1,5.4v22.1c0,2.2-0.7,4-2.1,5.4c-1.4,1.4-3.3,2.1-5.7,2.1h-34.4l-4.5,33.4c-0.6,4.5-3.2,6.8-7.8,6.8h-22.4
			c-1.9,0-3.6-0.7-4.9-2.1c-1.3-1.4-1.9-3.1-1.9-5l4.9-33.1h-37l-4.5,33.4c-0.6,4.5-3.2,6.8-7.8,6.8H1037.8z M1078.4,722.7h36.7
			l6.8-45.5h-37L1078.4,722.7z"/>
	</g>
	<g>
		<path class="st0" d="M1276.7,800c-13.9,0-26-2.3-36.4-6.8c-10.4-4.5-18.4-11.1-24.2-19.6c-5.7-8.5-8.6-18.5-8.6-30
			c0-8.1,1.6-15.4,4.9-21.7c3.2-6.3,7.7-12,13.5-17.1c5.7-5.1,12.3-9.8,19.7-14c-7.6-8.1-13-15.6-16.3-22.2
			c-3.2-6.7-4.9-13.5-4.9-20.6c0-8.5,2.2-16.4,6.7-23.6c4.4-7.2,11-13.1,19.7-17.6c8.7-4.5,19.3-6.8,31.9-6.8
			c11.8,0,21.9,2.2,30.3,6.5c8.3,4.4,14.7,10.1,19.2,17.4c4.4,7.2,6.7,15.1,6.7,23.6c0,7.6-1.7,14.4-5,20.4c-3.3,6-8,11.4-14,16.3
			c-6,4.8-12.8,9.4-20.4,13.9l36.4,36.1c1.8-3,4.2-7.2,6.9-12.8c2.8-5.6,5.3-12.7,7.5-21.4c0.6-3,2.5-4.4,5.8-4.4h24.2
			c1.7,0,3,0.5,4,1.5c1,1,1.5,2.4,1.5,4c0,3.5-0.8,7.6-2.4,12.4c-1.6,4.7-3.7,9.7-6.3,14.9c-2.6,5.2-5.4,10.3-8.5,15.3
			c-3.1,5-6.2,9.6-9.6,13.9l30.3,30.6c1.3,1.5,1.9,2.9,1.9,4.2c0,1.5-0.5,2.7-1.4,3.6c-0.9,0.9-2.2,1.4-3.9,1.4h-31.9
			c-1.9,0-3.3-0.3-4.4-1c-1.1-0.6-2.1-1.3-3.1-1.8l-13.9-13.3c-7.4,6.3-15.7,11-24.9,14.2C1298.8,798.4,1288.4,800,1276.7,800z
			 M1276.7,768.1c6.1,0,11.9-1,17.4-3.1c5.5-2,10.5-5.2,15.1-9.4l-40.8-40.3c-5.7,3.2-10.7,6.9-14.9,11.3c-4.2,4.4-6.3,9.6-6.3,15.7
			c0,5.4,1.4,10,4.3,13.9c2.9,3.9,6.5,6.9,11,8.9C1267,767,1271.7,768.1,1276.7,768.1z M1277.9,674.7c4.6-2.4,8.9-4.9,12.8-7.4
			c3.9-2.5,6.9-5.3,9.2-8.3c2.2-3.1,3.3-6.5,3.3-10.4c0-5.7-1.9-10.3-5.7-13.6c-3.8-3.3-8.7-5-14.6-5c-5.4,0-10.1,1.7-14.2,5
			c-4.1,3.3-6.1,7.9-6.1,13.6c0,2.6,0.5,5.1,1.4,7.6c0.9,2.5,2.5,5.2,4.9,8.2C1271.1,667.4,1274.1,670.8,1277.9,674.7z"/>
	</g>
	<g>
		<path class="st0" d="M1448.7,721.5c-2.2,0-4.1-0.8-5.6-2.3c-1.5-1.5-2.3-3.5-2.3-5.9v-26.4c0-2.4,0.8-4.4,2.3-5.9
			c1.5-1.5,3.4-2.3,5.6-2.3h102.6c2.2,0,4.1,0.8,5.6,2.3c1.5,1.5,2.3,3.5,2.3,5.9v26.4c0,2.4-0.8,4.4-2.3,5.9
			c-1.5,1.5-3.4,2.3-5.6,2.3H1448.7z"/>
	</g>
	<g>
		<path class="st0" d="M1688.4,788.1c-2.2,0-4.1-0.8-5.6-2.3c-1.5-1.5-2.3-3.5-2.3-5.9v-62.4h-61c-2.4,0-4.4-0.8-5.9-2.3
			c-1.5-1.5-2.3-3.4-2.3-5.6v-20.8c0-2.4,0.8-4.4,2.3-5.9c1.5-1.5,3.5-2.3,5.9-2.3h61v-60.4c0-2.4,0.8-4.4,2.3-5.9
			c1.5-1.5,3.4-2.3,5.6-2.3h23.4c2.2,0,4.1,0.8,5.6,2.3c1.5,1.5,2.3,3.5,2.3,5.9v60.4h61c2.2,0,4.1,0.8,5.6,2.3
			c1.5,1.5,2.3,3.5,2.3,5.9v20.8c0,2.2-0.8,4.1-2.3,5.6c-1.5,1.5-3.4,2.3-5.6,2.3h-61v62.4c0,2.4-0.8,4.4-2.3,5.9
			c-1.5,1.5-3.4,2.3-5.6,2.3H1688.4z"/>
	</g>
	<g>
		<path class="st0" d="M1820.8,800c-2.3,0-4.1-0.7-5.5-2.1c-1.4-1.4-2.1-3.3-2.1-5.5v-34.7c0-2,0.7-3.8,2.1-5.4
			c1.4-1.5,3.3-2.3,5.5-2.3h34.7c2,0,3.8,0.8,5.4,2.3c1.5,1.5,2.3,3.3,2.3,5.4v34.7c0,2.3-0.8,4.1-2.3,5.5c-1.5,1.4-3.3,2.1-5.4,2.1
			H1820.8z"/>
	</g>
	<g>
		<path class="st0" d="M36,600c-1.9,0-3.5-0.7-4.9-2c-1.3-1.3-2-3-2-5.1V407.1c0-2.1,0.7-3.8,2-5.1c1.3-1.3,3-2,4.9-2h32.3
			c1.9,0,3.5,0.7,4.9,2c1.3,1.3,2,3,2,5.1v154.3h88.6c2.1,0,3.8,0.7,5.1,2c1.3,1.3,2,3,2,5.1v24.3c0,2.1-0.7,3.8-2,5.1
			c-1.3,1.3-3,2-5.1,2H36z"/>
	</g>
	<g>
		<path class="st0" d="M211.3,600c-2.1,0-3.8-0.7-5.1-2c-1.3-1.3-2-3-2-5.1V407.1c0-2.1,0.7-3.8,2-5.1c1.3-1.3,3-2,5.1-2h26.9
			c2.9,0,5,0.8,6.4,2.3c1.4,1.5,2.3,2.7,2.7,3.4l52.9,96.6l52.9-96.6c0.4-0.8,1.3-1.9,2.7-3.4c1.4-1.5,3.6-2.3,6.4-2.3h26.6
			c2.1,0,3.8,0.7,5.1,2c1.3,1.3,2,3,2,5.1v185.7c0,2.1-0.7,3.8-2,5.1c-1.3,1.3-3,2-5.1,2h-29.1c-1.9,0-3.5-0.7-4.9-2
			c-1.3-1.3-2-3-2-5.1V477.7l-36.3,67.7c-0.8,1.7-1.9,3.2-3.4,4.6c-1.5,1.3-3.6,2-6.3,2h-13.4c-2.5,0-4.5-0.7-6-2
			c-1.5-1.3-2.8-2.9-3.7-4.6l-36-67.7v115.1c0,2.1-0.7,3.8-2,5.1c-1.3,1.3-3,2-5.1,2H211.3z"/>
	</g>
	<g>
		<path class="st0" d="M426.1,600c-1.9,0-3.5-0.7-4.9-2c-1.3-1.3-2-3-2-5.1V407.1c0-2.1,0.7-3.8,2-5.1c1.3-1.3,3-2,4.9-2h26.3
			c2.9,0,5,0.7,6.3,2c1.3,1.3,2.2,2.4,2.6,3.1l76,118.9V407.1c0-2.1,0.7-3.8,2-5.1c1.3-1.3,3-2,5.1-2h29.1c2.1,0,3.8,0.7,5.1,2
			c1.3,1.3,2,3,2,5.1v185.7c0,1.9-0.7,3.6-2,5c-1.3,1.4-3,2.1-5.1,2.1h-26.3c-2.9,0-5-0.7-6.3-2.1c-1.3-1.4-2.2-2.4-2.6-3
			l-75.7-115.1v113.1c0,2.1-0.7,3.8-2,5.1c-1.3,1.3-3,2-5.1,2H426.1z"/>
	</g>
	<g>
		<path class="st0" d="M699.9,600c-16.9,0-31.4-2.8-43.6-8.3c-12.2-5.6-21.8-13.9-28.6-25.1c-6.9-11.2-10.6-25.3-11.1-42.4
			c-0.2-8-0.3-15.9-0.3-23.7c0-7.9,0.1-15.9,0.3-24c0.6-16.7,4.3-30.7,11.2-42.1c6.9-11.4,16.6-20,28.9-25.7
			c12.3-5.7,26.7-8.6,43.2-8.6c16.3,0,30.6,2.9,42.9,8.6c12.3,5.7,22,14.3,29,25.7c7,11.4,10.8,25.4,11.4,42.1
			c0.4,8.2,0.6,16.2,0.6,24c0,7.9-0.2,15.8-0.6,23.7c-0.6,17-4.3,31.2-11.3,42.4c-6.9,11.2-16.5,19.6-28.7,25.1
			C731,597.2,716.5,600,699.9,600z M699.9,563.9c10.7,0,19.6-3.2,26.5-9.7c6.9-6.5,10.6-16.9,11-31.4c0.4-8.1,0.6-15.8,0.6-22.9
			c0-7.1-0.2-14.7-0.6-22.6c-0.2-9.6-1.9-17.5-5.3-23.6c-3.3-6.1-7.7-10.6-13.2-13.3c-5.5-2.8-11.8-4.2-19-4.2
			c-7,0-13.3,1.4-18.9,4.2c-5.6,2.8-10,7.2-13.3,13.3c-3.3,6.1-5.2,14-5.6,23.6c-0.2,8-0.3,15.5-0.3,22.6c0,7.1,0.1,14.8,0.3,22.9
			c0.6,14.4,4.3,24.9,11.1,31.4C680,560.7,688.9,563.9,699.9,563.9z"/>
	</g>
	<g>
		<path class="st0" d="M826.1,600c-1.9,0-3.5-0.7-4.9-2c-1.3-1.3-2-3-2-5.1V407.1c0-2.1,0.7-3.8,2-5.1c1.3-1.3,3-2,4.9-2h78.3
			c15.4,0,28.9,2.4,40.3,7.1c11.4,4.8,20.3,12,26.6,21.6c6.3,9.6,9.4,21.7,9.4,36.1c0,14.3-3.1,26.1-9.4,35.6
			c-6.3,9.4-15.1,16.4-26.6,21c-11.4,4.6-24.9,6.9-40.3,6.9h-38.3v64.6c0,2.1-0.7,3.8-2,5.1c-1.3,1.3-3,2-5.1,2H826.1z M865.6,492.9
			H903c9.7,0,17.2-2.4,22.6-7.1c5.3-4.8,8-11.8,8-21.1c0-8.6-2.4-15.5-7.3-20.9c-4.9-5.3-12.6-8-23.3-8h-37.4V492.9z"/>
	</g>
	<g>
		<path class="st0" d="M1099.9,600c-16.9,0-31.4-2.8-43.6-8.3c-12.2-5.6-21.8-13.9-28.6-25.1c-6.9-11.2-10.6-25.3-11.1-42.4
			c-0.2-8-0.3-15.9-0.3-23.7c0-7.9,0.1-15.9,0.3-24c0.6-16.7,4.3-30.7,11.2-42.1c6.9-11.4,16.6-20,28.9-25.7
			c12.3-5.7,26.7-8.6,43.2-8.6c16.3,0,30.6,2.9,42.9,8.6c12.3,5.7,22,14.3,29,25.7c7,11.4,10.8,25.4,11.4,42.1
			c0.4,8.2,0.6,16.2,0.6,24c0,7.9-0.2,15.8-0.6,23.7c-0.6,17-4.3,31.2-11.3,42.4c-6.9,11.2-16.5,19.6-28.7,25.1
			C1131,597.2,1116.5,600,1099.9,600z M1099.9,563.9c10.7,0,19.6-3.2,26.5-9.7c6.9-6.5,10.6-16.9,11-31.4c0.4-8.1,0.6-15.8,0.6-22.9
			c0-7.1-0.2-14.7-0.6-22.6c-0.2-9.6-1.9-17.5-5.3-23.6c-3.3-6.1-7.7-10.6-13.2-13.3c-5.5-2.8-11.8-4.2-19-4.2
			c-7,0-13.3,1.4-18.9,4.2c-5.6,2.8-10,7.2-13.3,13.3c-3.3,6.1-5.2,14-5.6,23.6c-0.2,8-0.3,15.5-0.3,22.6c0,7.1,0.1,14.8,0.3,22.9
			c0.6,14.4,4.3,24.9,11.1,31.4C1080,560.7,1088.9,563.9,1099.9,563.9z"/>
	</g>
	<g>
		<path class="st0" d="M1224.7,600c-1.9,0-3.5-0.7-4.9-2c-1.3-1.3-2-3-2-5.1V407.1c0-2.1,0.7-3.8,2-5.1c1.3-1.3,3-2,4.9-2h76
			c23.8,0,42.6,5.5,56.3,16.4c13.7,11,20.6,26.7,20.6,47.3c0,13.9-3.3,25.5-10,34.9c-6.7,9.3-15.6,16.3-26.9,20.9l40.6,71.4
			c0.6,1.1,0.9,2.2,0.9,3.1c0,1.5-0.6,2.9-1.9,4.1c-1.2,1.2-2.6,1.9-4.1,1.9h-32c-3.4,0-6-0.9-7.7-2.7c-1.7-1.8-3-3.5-3.7-5
			l-34.9-65.4h-34.6v66c0,2.1-0.7,3.8-2,5.1c-1.3,1.3-3,2-5.1,2H1224.7z M1263.3,490.6h36.9c10.3,0,18-2.4,23-7.1
			c5-4.8,7.6-11.4,7.6-20c0-8.6-2.5-15.3-7.4-20.3c-5-5-12.7-7.4-23.1-7.4h-36.9V490.6z"/>
	</g>
	<g>
		<path class="st0" d="M1500,600c-17.8,0-32.6-2.6-44.6-7.8c-11.9-5.2-21-11.9-27.1-20.3c-6.1-8.3-9.4-17.2-9.7-26.7
			c0-1.7,0.6-3.1,1.7-4.2c1.1-1.1,2.5-1.7,4.2-1.7h30c2.4,0,4.3,0.5,5.6,1.4c1.3,0.9,2.5,2.1,3.6,3.6c1.3,3.3,3.4,6.5,6.2,9.4
			c2.9,3,6.8,5.4,11.7,7.2c4.9,1.9,11.1,2.8,18.5,2.8c12,0,21.1-1.9,27.1-5.8c6-3.9,9-9.2,9-15.8c0-4.6-1.6-8.4-4.9-11.4
			c-3.2-3-8.3-5.6-15.3-8.1c-6.9-2.4-16.2-4.9-27.6-7.5c-13.9-3.1-25.7-7.1-35.4-11.8c-9.7-4.7-17-10.8-21.9-18.3
			c-4.9-7.5-7.4-16.8-7.4-27.9s3.1-21,9.2-29.6c6.1-8.6,14.7-15.4,25.8-20.3c11.1-4.9,24.3-7.4,39.7-7.4c12.4,0,23.4,1.7,32.9,5
			c9.5,3.3,17.5,7.7,23.9,13.1c6.4,5.4,11.3,11.1,14.6,17.2c3.3,6.1,5.1,12,5.3,17.8c0,1.7-0.5,3.1-1.5,4.3c-1,1.2-2.5,1.8-4.3,1.8
			h-31.1c-1.9,0-3.5-0.4-5-1.1c-1.5-0.7-2.8-2-3.9-3.9c-0.9-5-4.1-9.3-9.6-12.8c-5.5-3.5-12.5-5.3-21.3-5.3
			c-9.1,0-16.3,1.6-21.5,4.9c-5.3,3.2-7.9,8.3-7.9,15.1c0,4.4,1.4,8.2,4.2,11.3c2.8,3.1,7.3,5.7,13.6,8.1c6.3,2.3,14.8,4.8,25.6,7.4
			c16.1,3.3,29.3,7.4,39.4,12.1c10.2,4.7,17.7,10.7,22.5,18.1c4.8,7.3,7.2,16.5,7.2,27.6c0,12.4-3.4,23.1-10.3,31.9
			c-6.9,8.9-16.4,15.7-28.6,20.4C1530.3,597.6,1516.1,600,1500,600z"/>
	</g>
	<g>
		<path class="st0" d="M1684.1,600c-2.1,0-3.8-0.7-5.1-2c-1.3-1.3-2-3-2-5.1V440h-52c-1.9,0-3.5-0.7-4.9-2c-1.3-1.3-2-3-2-5.1v-25.7
			c0-2.1,0.7-3.8,2-5.1c1.3-1.3,3-2,4.9-2h149.7c2.1,0,3.8,0.7,5.1,2c1.3,1.3,2,3,2,5.1v25.7c0,2.1-0.7,3.8-2,5.1
			c-1.3,1.3-3,2-5.1,2H1723v152.9c0,2.1-0.7,3.8-2,5.1c-1.3,1.3-3,2-5.1,2H1684.1z"/>
	</g>
	<g>
		<path class="st0" d="M1094.1,530.3c-1.3-1.3-2-3-2-4.8c0-1.9,0.7-3.6,2.2-5.1l18.2-18.2c1.5-1.5,3.2-2.2,5.1-2.2
			c1.9,0,3.5,0.7,4.8,2l67.4,67.4c1.5,1.5,2.2,3.2,2.2,5.1c0,1.9-0.7,3.6-2.2,5.1l-18.2,18.2c-1.5,1.5-3.2,2.2-5.1,2.2
			c-1.9,0-3.6-0.7-5.1-2.2L1094.1,530.3z"/>
	</g>
	<g>
		<path class="st0" d="M1900.1,600c-16.5,0-31-2.8-43.4-8.3c-12.4-5.5-22-14.1-28.7-25.6c-6.8-11.5-10.1-26.2-10.1-44.1V407
			c0-2.1,0.7-3.8,2-5.1c1.3-1.3,2.9-2,4.8-2h31c2.1,0,3.8,0.7,5.1,2c1.3,1.3,2,3,2,5.1v114.6c0,13.7,3.3,23.9,9.9,30.7
			c6.6,6.8,15.8,10.1,27.6,10.1c11.6,0,20.7-3.4,27.3-10.1c6.6-6.8,9.9-17,9.9-30.7V407c0-2.1,0.7-3.8,2.1-5.1c1.4-1.3,3-2,4.9-2h31
			c1.9,0,3.5,0.7,4.8,2c1.3,1.3,2,3,2,5.1V522c0,17.8-3.3,32.5-10,44.1c-6.7,11.5-16.2,20.1-28.5,25.6
			C1931.4,597.2,1916.9,600,1900.1,600z"/>
	</g>
	<g>
		<path class="st0" d="M2081.1,600c-3,0-5.5-0.8-7.4-2.4c-1.9-1.6-3.2-3.6-4-5.9L2010,408.6c-0.2-1-0.3-1.8-0.3-2.6
			c0-1.5,0.6-2.9,1.7-4.1c1.1-1.2,2.6-1.9,4.3-1.9h30.3c2.9,0,5.1,0.8,6.7,2.4c1.6,1.6,2.6,3.1,3,4.4l44.3,139.7l44.3-139.7
			c0.4-1.3,1.3-2.8,2.9-4.4c1.5-1.6,3.8-2.4,6.9-2.4h30.3c1.5,0,2.9,0.6,4.1,1.9c1.2,1.2,1.9,2.6,1.9,4.1c0,0.8-0.2,1.6-0.6,2.6
			L2130,591.7c-0.8,2.3-2,4.2-3.9,5.9c-1.8,1.6-4.3,2.4-7.6,2.4H2081.1z"/>
	</g>
	<g>
		<path class="st0" d="M8.7,400c-1.7,0-3.1-0.6-4.3-1.9c-1.1-1.2-1.7-2.6-1.7-4.1c0-1,0.1-1.8,0.3-2.6l68-183.7
			c0.6-2.1,1.7-3.9,3.4-5.4c1.7-1.5,4.1-2.3,7.1-2.3h36.6c3,0,5.4,0.8,7.1,2.3c1.7,1.5,3,3.3,3.7,5.4l67.7,183.7
			c0.4,0.8,0.6,1.6,0.6,2.6c0,1.5-0.6,2.9-1.9,4.1c-1.2,1.2-2.7,1.9-4.4,1.9h-30c-2.7,0-4.7-0.7-6-2c-1.3-1.3-2.2-2.6-2.6-3.7
			l-12.3-32H59.6l-12,32c-0.6,1.1-1.5,2.4-2.7,3.7c-1.2,1.3-3.3,2-6.1,2H8.7z M70.4,325.4h58.9l-29.4-82L70.4,325.4z"/>
	</g>
	<g>
		<path class="st0" d="M224.4,400c-1.9,0-3.5-0.7-4.9-2c-1.3-1.3-2-3-2-5.1V207.1c0-2.1,0.7-3.8,2-5.1c1.3-1.3,3-2,4.9-2h85.1
			c15.8,0,28.8,2.3,39,6.9c10.2,4.6,17.7,11,22.4,19.4c4.8,8.4,7.1,18.2,7.1,29.4c0,7-1.3,13.2-3.9,18.6c-2.6,5.3-5.7,9.7-9.4,13.1
			c-3.7,3.4-7.3,6-10.7,7.7c7.4,3.4,14,9.1,19.7,17c5.7,7.9,8.6,17.3,8.6,28.1c0,12-2.7,22.5-8.1,31.4c-5.4,9-13.4,15.9-23.9,20.9
			c-10.5,5-23.2,7.4-38.3,7.4H224.4z M263,280.9h41.1c9,0,15.7-2.2,20.1-6.7c4.5-4.5,6.7-10.2,6.7-17.3c0-7-2.2-12.7-6.7-16.9
			c-4.5-4.2-11.2-6.3-20.1-6.3H263V280.9z M263,366.3h43.7c9.3,0,16.4-2.6,21.1-7.9c4.8-5.2,7.1-11.4,7.1-18.4
			c0-7.4-2.4-13.7-7.3-18.7c-4.9-5-11.9-7.6-21-7.6H263V366.3z"/>
	</g>
	<g>
		<path class="st0" d="M499.8,400c-17.2,0-31.9-2.9-44.2-8.8s-21.7-14.3-28.3-25.6c-6.7-11.2-10.4-24.9-11.1-41
			c-0.2-7.6-0.3-15.7-0.3-24.4c0-8.7,0.1-17,0.3-25c0.7-15.9,4.5-29.5,11.2-40.7c6.8-11.2,16.2-19.8,28.5-25.7
			c12.2-5.9,26.8-8.9,43.9-8.9c12.6,0,23.9,1.6,34,4.7c10.1,3.2,18.8,7.7,26.2,13.6c7.4,5.9,13.2,12.9,17.4,20.8
			c4.2,8,6.3,16.9,6.5,26.7c0.2,1.7-0.3,3.1-1.5,4.2c-1.2,1.1-2.6,1.7-4.3,1.7h-31.9c-2.2,0-4-0.5-5.3-1.5c-1.3-1-2.3-2.8-3.1-5.4
			c-2.8-11.1-7.4-18.7-13.9-22.6c-6.5-4-14.5-6-24.2-6c-11.3,0-20.3,3.2-26.9,9.4c-6.7,6.3-10.3,16.7-10.8,31.1
			c-0.6,15.2-0.6,30.7,0,46.7c0.6,14.4,4.2,24.8,10.8,31.1c6.7,6.3,15.6,9.4,26.9,9.4c9.6,0,17.7-2,24.3-6.1
			c6.6-4.1,11.2-11.6,13.8-22.5c0.7-2.6,1.8-4.4,3.1-5.4c1.3-1,3.1-1.5,5.3-1.5h31.9c1.7,0,3.1,0.6,4.3,1.7c1.2,1.1,1.7,2.5,1.5,4.2
			c-0.2,9.8-2.4,18.7-6.5,26.7c-4.2,8-10,14.9-17.4,20.8c-7.4,5.9-16.2,10.5-26.2,13.6C523.8,398.4,512.4,400,499.8,400z"/>
	</g>
	<g>
		<path class="st0" d="M623.3,400c-1.9,0-3.5-0.7-4.9-2c-1.3-1.3-2-3-2-5.1V207.1c0-2.1,0.7-3.8,2-5.1c1.3-1.3,3-2,4.9-2h72
			c19,0,35,3,47.7,9c12.8,6,22.5,14.8,29.3,26.3C779,246.8,782.6,261,783,278c0.4,8.4,0.6,15.7,0.6,22s-0.2,13.5-0.6,21.7
			c-0.6,17.7-4.1,32.4-10.6,44c-6.5,11.6-16,20.2-28.4,25.9c-12.5,5.6-28.2,8.4-47.3,8.4H623.3z M661.9,362.9h33.4
			c9.5,0,17.3-1.4,23.3-4.1c6-2.8,10.5-7.2,13.6-13.4c3-6.2,4.7-14.2,4.9-24.1c0.2-5.5,0.3-10.5,0.4-14.9c0.1-4.4,0.1-8.8,0-13.1
			c-0.1-4.4-0.2-9.2-0.4-14.6c-0.4-14.3-4-24.8-11-31.4c-7-6.7-17.7-10-32.1-10h-32V362.9z"/>
	</g>
	<g>
		<path class="st0" d="M833.9,400c-1.9,0-3.5-0.7-4.9-2c-1.3-1.3-2-3-2-5.1V207.1c0-2.1,0.7-3.8,2-5.1c1.3-1.3,3-2,4.9-2h129.7
			c2.1,0,3.8,0.7,5.1,2c1.3,1.3,2,3,2,5.1V230c0,2.1-0.7,3.8-2,5.1c-1.3,1.3-3,2-5.1,2H871v44.6h86.3c2.1,0,3.8,0.7,5.1,2
			c1.3,1.3,2,3,2,5.1V310c0,1.9-0.7,3.6-2,5c-1.3,1.4-3,2.1-5.1,2.1H871v45.7h94.9c2.1,0,3.8,0.7,5.1,2c1.3,1.3,2,3,2,5.1v22.9
			c0,2.1-0.7,3.8-2,5.1c-1.3,1.3-3,2-5.1,2H833.9z"/>
	</g>
	<g>
		<path class="st0" d="M1036,400c-1.9,0-3.5-0.7-4.9-2c-1.3-1.3-2-3-2-5.1V207.1c0-2.1,0.7-3.8,2-5.1c1.3-1.3,3-2,4.9-2h127.7
			c2.1,0,3.8,0.7,5.1,2c1.3,1.3,2,3,2,5.1v24.6c0,1.9-0.7,3.5-2,4.9c-1.3,1.3-3,2-5.1,2H1074v48.3h84c2.1,0,3.8,0.7,5.1,2
			c1.3,1.3,2,3,2,5.1v24.3c0,1.9-0.7,3.5-2,4.9c-1.3,1.3-3,2-5.1,2h-84v67.7c0,2.1-0.7,3.8-2,5.1c-1.3,1.3-3,2-5.1,2H1036z"/>
	</g>
	<g>
		<path class="st0" d="M1299.4,400c-17.4,0-32.3-2.9-44.6-8.8c-12.3-5.8-21.9-14.3-28.6-25.6c-6.8-11.2-10.4-24.8-11-40.7
			c-0.2-8-0.3-16.5-0.3-25.6c0-9.1,0.1-17.7,0.3-25.8c0.6-15.6,4.2-28.8,11-39.7c6.8-10.9,16.4-19.3,28.9-25.1s27.3-8.8,44.3-8.8
			c13.7,0,25.7,1.8,36.1,5.3c10.4,3.5,19.1,8.1,26.2,13.8c7.1,5.7,12.5,11.8,16.1,18.5c3.6,6.7,5.5,13.2,5.7,19.4
			c0,1.7-0.6,3.1-1.7,4.2s-2.6,1.7-4.4,1.7h-34.4c-1.9,0-3.3-0.4-4.3-1.1c-1-0.7-1.9-1.8-2.6-3.3c-1.3-3.1-3.4-6.5-6.2-10
			c-2.9-3.5-6.7-6.4-11.5-8.8c-4.8-2.3-11.1-3.5-18.9-3.5c-11.7,0-20.9,3.1-27.6,9.2c-6.8,6.1-10.4,16-11,29.7
			c-0.6,15.9-0.6,32.1,0,48.6c0.6,14.3,4.3,24.5,11.4,30.8c7,6.3,16.3,9.4,27.8,9.4c7.6,0,14.4-1.3,20.4-4c6-2.7,10.8-6.8,14.3-12.5
			c3.5-5.6,5.3-12.9,5.3-21.8v-6.9h-30.3c-1.9,0-3.4-0.7-4.7-2.1c-1.3-1.4-1.9-3-1.9-4.9v-17.8c0-2,0.6-3.7,1.9-5
			c1.3-1.3,2.9-1.9,4.7-1.9h68.3c2,0,3.7,0.7,5,1.9c1.3,1.3,1.9,3,1.9,5v30.3c0,15.9-3.5,29.5-10.6,40.8c-7,11.3-17,20-29.9,26
			C1331.7,397,1316.7,400,1299.4,400z"/>
	</g>
	<g>
		<path class="st0" d="M1422.7,400c-1.9,0-3.5-0.7-4.9-2c-1.3-1.3-2-3-2-5.1V207.1c0-2.1,0.7-3.8,2-5.1c1.3-1.3,3-2,4.9-2h31.4
			c2.1,0,3.8,0.7,5.1,2c1.3,1.3,2,3,2,5.1v71.4h77.4v-71.4c0-2.1,0.7-3.8,2-5.1c1.3-1.3,3-2,4.9-2h31.4c2.1,0,3.8,0.7,5.1,2
			c1.3,1.3,2,3,2,5.1v185.7c0,2.1-0.7,3.8-2,5.1c-1.3,1.3-3,2-5.1,2h-31.4c-1.9,0-3.5-0.7-4.9-2c-1.3-1.3-2-3-2-5.1v-73.7h-77.4
			v73.7c0,2.1-0.7,3.8-2,5.1c-1.3,1.3-3,2-5.1,2H1422.7z"/>
	</g>
	<path class="st0" d="M1774.7,240c2.1,0,3.8-0.7,5.1-2c1.3-1.3,2-3,2-5.1v-25.7c0-2.1-0.7-3.8-2-5.1c-1.3-1.3-3-2-5.1-2H1625
		c-1.9,0-3.5,0.7-4.9,2c-1.3,1.3-2,3-2,5.1v25.7c0,2.1,0.7,3.8,2,5.1c1.3,1.3,3,2,4.9,2h54.6v120H1625c-1.9,0-3.5,0.7-4.9,2
		c-1.3,1.3-2,3-2,5.1v25.7c0,2.1,0.7,3.8,2,5.1c1.3,1.3,3,2,4.9,2h149.7c2.1,0,3.8-0.7,5.1-2c1.3-1.3,2-3,2-5.1v-25.7
		c0-2.1-0.7-3.8-2-5.1c-1.3-1.3-3-2-5.1-2h-54.3V240H1774.7z"/>
	<g>
		<path class="st0" d="M1899.4,400c-10.5,0-20.5-1.3-29.9-3.9c-9.4-2.6-17.7-6.6-25.1-12c-7.3-5.4-13.1-12-17.5-19.9
			c-4.3-7.9-6.6-17.1-6.8-27.6c0-1.7,0.6-3.1,1.7-4.4c1.1-1.2,2.5-1.8,4.2-1.8h32.4c2.6,0,4.6,0.6,5.9,1.8c1.3,1.2,2.3,3.1,3.1,5.8
			c1.1,5.8,3.2,10.7,6.2,14.5c3,3.9,6.8,6.6,11.4,8.3c4.6,1.7,9.7,2.5,15.4,2.5c10.7,0,18.9-3.4,24.5-10.3
			c5.6-6.9,8.5-16.7,8.5-29.4v-85.9H1840c-1.9,0-3.5-0.7-4.8-2c-1.3-1.3-2-3-2-5.1V207c0-2.1,0.7-3.8,2-5.1c1.3-1.3,2.9-2,4.8-2
			h132.7c2.1,0,3.8,0.7,5.1,2c1.3,1.3,2,3,2,5.1v117.7c0,16.2-3.4,29.8-10.1,41c-6.8,11.2-16.2,19.7-28.2,25.5
			C1929.4,397.1,1915.4,400,1899.4,400z"/>
	</g>
	<g>
		<path class="st0" d="M2026.4,400c-1.9,0-3.5-0.7-4.9-2c-1.3-1.3-2-3-2-5.1V207.1c0-2.1,0.7-3.8,2-5.1c1.3-1.3,3-2,4.9-2h30.9
			c2.1,0,3.8,0.7,5.1,2c1.3,1.3,2,3,2,5.1v65.1l58.6-66.9c0.8-1.1,2-2.3,3.9-3.6c1.8-1.2,4.2-1.9,7.3-1.9h34.9
			c1.5,0,2.9,0.6,4.1,1.9c1.2,1.2,1.9,2.6,1.9,4.1c0,1.3-0.4,2.5-1.1,3.4l-73.4,86.3l78.9,94.9c0.8,0.8,1.1,1.9,1.1,3.4
			c0,1.5-0.6,2.9-1.9,4.1c-1.2,1.2-2.6,1.9-4.1,1.9h-36c-3.4,0-6-0.8-7.7-2.3c-1.7-1.5-2.9-2.6-3.4-3.1l-62.9-73.1v71.4
			c0,2.1-0.7,3.8-2,5.1c-1.3,1.3-3,2-5.1,2H2026.4z"/>
	</g>
	<g>
		<path class="st0" d="M917,200c-1.9,0-3.5-0.7-4.9-2c-1.3-1.3-2-3-2-5.1v-34.3h-90c-1.9,0-3.5-0.7-4.9-2c-1.3-1.3-2-3-2-5.1v-23.1
			c0-1.5,0.3-3,0.9-4.6c0.6-1.5,1.3-3,2.3-4.3L900.1,4.9c2.5-3.2,6-4.9,10.6-4.9H947c2.1,0,3.8,0.7,5.1,2c1.3,1.3,2,3,2,5.1v113.1
			h25.4c2.1,0,3.8,0.7,5.1,2c1.3,1.3,2,3,2,5.1v24c0,2.1-0.7,3.8-2,5.1c-1.3,1.3-3,2-5.1,2h-25.4v34.3c0,2.1-0.7,3.8-2,5.1
			c-1.3,1.3-3,2-5.1,2H917z M857.9,122H911V46.9L857.9,122z"/>
	</g>
	<g>
		<path class="st0" d="M1099.3,200c-16.9,0-31-2.7-42.5-8.2c-11.4-5.4-20.1-12.6-26-21.4c-5.9-8.8-9-18.2-9.4-28.1
			c0-1.7,0.6-3.1,1.7-4.2c1.1-1.1,2.5-1.7,4.2-1.7h31.8c2.4,0,4.4,0.5,5.8,1.4c1.4,0.9,2.4,2.3,3,4.2c1.9,4.9,4.4,9,7.5,12.2
			c3.1,3.3,6.7,5.6,10.8,7c4.1,1.4,8.6,2.1,13.5,2.1c6,0,11.5-1.2,16.5-3.7c5-2.4,9-6.1,12-11c3-4.9,4.5-10.9,4.5-18
			c0-6.2-1.4-11.6-4.2-16.3c-2.8-4.7-6.7-8.3-11.7-11c-5-2.6-10.6-3.9-17-3.9c-5.1,0-9.1,0.6-12.2,1.8c-3.1,1.2-5.7,2.6-7.7,4.1
			c-2.1,1.5-3.9,2.9-5.6,4.1c-1.7,1.2-3.5,1.8-5.3,1.8h-31.5c-1.7,0-3.1-0.6-4.4-1.8c-1.2-1.2-1.8-2.7-1.8-4.4l9.8-97
			c0.4-2.6,1.4-4.6,3-6c1.6-1.4,3.5-2.1,5.8-2.1h109.1c2.1,0,3.7,0.7,5.1,2c1.3,1.3,2,3,2,5.1v22.5c0,2.1-0.7,3.8-2,5.1
			c-1.3,1.3-3,2-5.1,2h-81.3l-3.9,41.1c3.6-2.6,8.2-4.9,13.8-6.8c5.6-1.9,13.3-2.8,23.1-2.8c9,0,17.6,1.5,25.7,4.4
			c8.2,2.9,15.5,7.2,21.9,12.8c6.5,5.6,11.5,12.3,15.2,20.1c3.7,7.8,5.5,16.6,5.5,26.6c0,13.5-3.2,25.4-9.7,35.6
			c-6.5,10.2-15.6,18.2-27.4,23.9C1129.7,197.1,1115.6,200,1099.3,200z"/>
	</g>
	<g>
		<path class="st0" d="M1300.7,200c-16.3,0-30.6-3-42.8-9c-12.2-6-21.6-14.3-28.3-24.9c-6.7-10.6-10-22.6-10-35.9
			c0-5.6,0.8-11.3,2.5-16.9c1.7-5.6,3.8-10.9,6.2-15.9c2.4-5,4.9-9.4,7.5-13.4c2.5-3.9,4.6-7.1,6.3-9.6l50.7-68.7
			c0.7-0.9,1.9-2.1,3.5-3.5c1.6-1.4,3.7-2.1,6.3-2.1h31.8c1.7,0,3.1,0.6,4.2,1.8c1.1,1.2,1.7,2.7,1.7,4.4c0,0.8-0.1,1.5-0.4,2.1
			c-0.3,0.7-0.6,1.2-1,1.5l-38.6,53.2c1.5-0.4,3.2-0.7,5.1-0.8c1.9-0.2,3.6-0.3,5.1-0.3c9,0.2,17.7,2,26.1,5.5
			c8.4,3.5,15.8,8.2,22.4,14.1c6.6,5.9,11.8,12.9,15.6,21c3.8,8.1,5.8,17.1,5.8,27c0,12.6-3.2,24.2-9.7,34.9
			c-6.5,10.7-15.7,19.3-27.6,25.8C1331.2,196.8,1317,200,1300.7,200z M1300.1,163.4c6.2,0,11.9-1.3,17.2-3.8
			c5.3-2.5,9.5-6.3,12.7-11.3c3.2-5,4.8-11,4.8-18.2c0-7.3-1.6-13.5-4.8-18.5c-3.2-5-7.4-8.7-12.7-11.3c-5.3-2.5-11-3.8-17.2-3.8
			c-6,0-11.7,1.3-17,3.8c-5.4,2.5-9.6,6.3-12.7,11.3c-3.1,5-4.6,11.1-4.6,18.5c0,7.1,1.6,13.2,4.8,18.2c3.2,5,7.4,8.7,12.7,11.3
			C1288.5,162.1,1294.1,163.4,1300.1,163.4z"/>
	</g>
	<g>
		<path class="st0" d="M1460.9,200c-1.7,0-3.1-0.6-4.3-1.9c-1.1-1.2-1.7-2.7-1.7-4.4c0-0.8,0.2-1.6,0.6-2.6l67.4-152.6h-87.7
			c-1.9,0-3.6-0.7-5-2c-1.4-1.3-2.1-3-2.1-5.1V7.1c0-2.1,0.7-3.8,2.1-5.1c1.4-1.3,3.1-2,5-2h129.7c2.1,0,3.8,0.7,5.1,2
			c1.3,1.3,2,3,2,5.1v21.4c0,2.9-0.3,5.2-0.9,7.1c-0.6,1.9-1.2,3.8-2,5.7L1502,193.1c-0.8,1.1-1.9,2.6-3.3,4.3
			c-1.4,1.7-3.6,2.6-6.4,2.6H1460.9z"/>
	</g>
	<g>
		<path class="st0" d="M1699.9,200c-13,0-24.4-1.5-34.3-4.6c-9.9-3.1-18.2-7.3-24.9-12.8c-6.7-5.5-11.7-11.8-15-19.2
			c-3.3-7.3-5-15.3-5-24c0-10.6,2.5-19.7,7.6-27.5c5.1-7.8,11.7-13.8,19.9-18.1c-6.5-4.3-11.5-9.7-15.1-16.3
			c-3.6-6.6-5.4-14.2-5.4-22.9c0-10.4,2.7-19.7,8.1-27.9c5.4-8.2,13.4-14.8,24-19.6c10.6-4.8,24-7.2,40.1-7.2
			c15.9,0,29.2,2.4,39.9,7.1c10.6,4.7,18.6,11.2,23.9,19.3c5.3,8.2,7.9,17.5,7.9,28.1c0,8.7-1.7,16.4-5.1,23.1
			c-3.4,6.7-8.5,12.1-15.1,16.4c8.5,4.1,15.3,10.1,20.4,18.1c5.1,8,7.6,17.2,7.6,27.8c0,11.5-3,21.8-9,30.8
			c-6,9.1-15,16.3-26.8,21.5C1731.6,197.4,1717.1,200,1699.9,200z M1699.9,167.8c6.5,0,12.4-1.1,17.6-3.3c5.3-2.2,9.5-5.5,12.6-9.7
			c3.1-4.3,4.7-9.3,4.7-15c0-5.9-1.6-11-4.7-15.1c-3.2-4.2-7.4-7.4-12.6-9.6c-5.3-2.2-11.2-3.3-17.6-3.3c-6.5,0-12.4,1.1-17.8,3.3
			c-5.4,2.2-9.6,5.4-12.6,9.6c-3.1,4.2-4.6,9.2-4.6,15.1c0,5.7,1.5,10.7,4.6,15c3.1,4.3,7.3,7.5,12.6,9.7
			C1687.5,166.7,1693.4,167.8,1699.9,167.8z M1699.9,81.1c5.7-0.2,10.9-1.3,15.6-3.3c4.6-2,8.3-4.9,11.1-8.5
			c2.8-3.6,4.2-7.8,4.2-12.6c0-5-1.3-9.3-4-12.9c-2.7-3.6-6.3-6.4-11-8.5c-4.6-2-9.9-3.1-15.8-3.1c-5.9,0-11.2,1-15.8,3.1
			c-4.6,2-8.3,4.9-11,8.5c-2.7,3.6-4,7.9-4,12.9s1.3,9.3,4,12.9c2.7,3.6,6.3,6.4,11,8.5C1688.7,80.1,1693.9,81.1,1699.9,81.1z"/>
	</g>
	<g>
		<path class="st0" d="M1862.7,200c-1.7,0-3.1-0.6-4.2-1.8c-1.1-1.2-1.7-2.7-1.7-4.4c0-0.9,0.1-1.7,0.4-2.3c0.3-0.6,0.5-1,0.7-1.4
			l40.6-55.8c-3.2,0.8-6.5,1.1-9.9,1.1c-9-0.4-17.6-2.3-25.6-5.6c-8.1-3.4-15.3-8-21.7-13.8c-6.4-5.8-11.4-12.7-14.9-20.6
			c-3.6-7.9-5.4-16.6-5.4-26.2c0-8.6,1.6-17.1,4.9-25.4c3.3-8.3,8.2-15.7,14.8-22.3c6.6-6.6,14.7-11.8,24.5-15.8
			C1875,2,1886.3,0,1899.3,0s24.4,1.8,34.4,5.4c10,3.6,18.3,8.5,25.1,14.8c6.8,6.3,11.8,13.5,15.2,21.7c3.4,8.2,5.1,16.9,5.1,26.1
			c0,8.3-1.5,16-4.4,23.1c-2.9,7.1-6.4,13.8-10.6,20c-4.1,6.2-8.3,12.2-12.4,18l-47.3,65.4c-0.8,0.9-1.8,2.1-3.2,3.5
			c-1.4,1.4-3.6,2.1-6.6,2.1H1862.7z M1899.6,102c6.4,0,12.1-1.3,17-3.9c5-2.6,8.9-6.4,11.8-11.3c2.9-4.9,4.4-10.7,4.4-17.5
			c0-6.9-1.5-12.8-4.4-17.6c-2.9-4.8-6.9-8.5-12-11.1c-5.1-2.6-10.7-3.9-16.9-3.9c-6,0-11.5,1.3-16.5,3.9c-5,2.6-9,6.3-12,11.1
			c-3,4.8-4.5,10.7-4.5,17.6c0,6.8,1.5,12.6,4.5,17.5c3,4.9,7,8.6,12,11.3C1888.1,100.7,1893.6,102,1899.6,102z"/>
	</g>
	<g>
		<path class="st0" d="M2025.7,77.1c-2.3,0-4.1-0.7-5.5-2.1c-1.4-1.4-2.1-3.3-2.1-5.5V36.6c0-2.2,0.7-4.1,2.1-5.5
			c1.4-1.4,3.3-2.1,5.5-2.1h34.7c2,0,3.8,0.7,5.4,2.1c1.5,1.4,2.3,3.3,2.3,5.5v32.8c0,2.3-0.8,4.1-2.3,5.5c-1.5,1.4-3.3,2.1-5.4,2.1
			H2025.7z M2025.7,184.4c-2.3,0-4.1-0.7-5.5-2.1c-1.4-1.4-2.1-3.3-2.1-5.5v-32.8c0-2.2,0.7-4.1,2.1-5.5c1.4-1.4,3.3-2.1,5.5-2.1
			h34.7c2,0,3.8,0.7,5.4,2.1c1.5,1.4,2.3,3.3,2.3,5.5v32.8c0,2.3-0.8,4.1-2.3,5.5c-1.5,1.4-3.3,2.1-5.4,2.1H2025.7z"/>
	</g>
	<g>
		<path class="st0" d="M699.9,200c-13.9,0-25.8-1.7-35.8-5.1c-10-3.4-18.1-7.7-24.5-13c-6.4-5.3-11.2-11-14.4-17.3
			c-3.2-6.3-4.9-12.3-5.1-18.2c0-1.7,0.6-3.1,1.7-4.2c1.1-1.1,2.5-1.7,4.2-1.7h31.3c2.1,0,3.8,0.4,5.1,1.3c1.3,0.8,2.4,2.3,3.4,4.4
			c1.7,4.3,4.2,7.8,7.5,10.4c3.3,2.6,7.2,4.5,11.8,5.5c4.6,1,9.5,1.5,14.8,1.5c10.5,0,18.8-2.4,24.8-7.3c6-4.9,9-11.7,9-20.6
			c0-9-2.8-15.5-8.5-19.4c-5.6-3.9-13.6-5.9-23.9-5.9h-30.1c-1.9,0-3.5-0.7-4.8-2c-1.3-1.3-2-2.9-2-4.8V89.9c0-2.3,0.4-4.1,1.3-5.6
			c0.8-1.5,1.7-2.7,2.7-3.7l48.5-43.9h-79.4c-2.1,0-3.8-0.7-5.1-2c-1.3-1.3-2-3-2-5.1V7c0-2.1,0.7-3.8,2-5.1c1.3-1.3,3-2,5.1-2
			h125.4c2.1,0,3.8,0.7,5.1,2c1.3,1.3,2,3,2,5.1v20.6c0,1.9-0.4,3.5-1.3,4.9c-0.8,1.4-1.8,2.6-3,3.5l-45.6,44.8l2.8,0.6
			c11.1,1.1,20.9,3.9,29.6,8.2c8.6,4.3,15.4,10.5,20.3,18.5c4.9,8,7.3,18.1,7.3,30.3c0,12.8-3.5,23.8-10.4,33
			c-7,9.2-16.4,16.3-28.5,21.3C729,197.5,715.3,200,699.9,200z"/>
	</g>
	<g>
		<path class="st0" d="M430.5,200c-2.1,0-3.7-0.7-5.1-2c-1.3-1.3-2-3-2-5.1v-16.9c0-1.5,0.4-3.6,1.3-6.2c0.8-2.6,2.8-5.1,5.8-7.6
			l36.8-36.2c13.7-10.5,24.8-19.4,33.4-26.8c8.6-7.4,15-14.1,19.1-20.1c4.1-6,6.2-11.8,6.2-17.4c0-7.3-2-13.3-6-18
			c-4-4.7-10.4-7-19.2-7c-6,0-11.1,1.3-15.2,3.8c-4.1,2.5-7.3,5.9-9.4,10c-2.2,4.1-3.7,8.5-4.6,13.2c-0.6,2.4-1.7,4.1-3.4,5.1
			c-1.7,0.9-3.6,1.4-5.6,1.4h-29.8c-1.9,0-3.4-0.6-4.5-1.7c-1.1-1.1-1.7-2.5-1.7-4.2c0.2-8.6,2-16.8,5.5-24.4
			c3.5-7.7,8.4-14.5,14.7-20.5c6.4-6,14-10.7,23-14.2c9-3.5,19.2-5.2,30.6-5.2c15.7,0,28.9,2.6,39.6,7.7
			c10.7,5.2,18.7,12.2,24.2,21.2c5.4,9,8.1,19.4,8.1,31.2c0,9-1.8,17.3-5.5,25c-3.7,7.7-8.9,15-15.7,22.1
			c-6.8,7-15.1,14.3-24.9,21.8l-32.9,33.1h76.1c2.1,0,3.7,0.7,5.1,2c1.3,1.3,2,3,2,5.1V193c0,2.1-0.7,3.7-2,5.1c-1.3,1.3-3,2-5.1,2
			H430.5z"/>
	</g>
</g>
</svg>
